<?xml version="1.0" encoding="UTF-8"?><svg id="Layer_2" xmlns="http://www.w3.org/2000/svg" viewBox="0 0 82.2 82"><defs><style>.cls-1{fill:#fff;}.cls-2{fill:#e1eee3;}.cls-3{fill:#84174e;}.cls-4{opacity:.1;}.cls-4,.cls-5{isolation:isolate;}.cls-5{opacity:.28;}</style></defs><g id="Layer_1-2"><g id="Layer_1-3"><path class="cls-3" d="m75.8,21C68.9,9,55.9,1,41.1,1S13.3,9.1,6.4,21c-3.4,5.9-5.4,12.7-5.4,20s2,14.1,5.4,20c6.9,12,19.9,20,34.7,20s27.8-8.1,34.7-20c3.4-5.9,5.4-12.7,5.4-20s-2-14.1-5.4-20Z"/><path class="cls-3" d="m41.1,82c-14.67,0-28.29-7.86-35.57-20.5C1.91,55.22,0,48.13,0,41s1.91-14.22,5.53-20.5C12.87,7.85,26.5,0,41.1,0s28.29,7.86,35.57,20.5h0c3.62,6.28,5.53,13.37,5.53,20.5s-1.91,14.22-5.53,20.5c-7.33,12.65-20.96,20.5-35.57,20.5Zm0-80c-13.89,0-26.86,7.47-33.83,19.5-3.44,5.98-5.27,12.72-5.27,19.5s1.82,13.52,5.27,19.5c6.92,12.03,19.88,19.5,33.83,19.5s26.86-7.47,33.83-19.5c3.44-5.98,5.26-12.72,5.26-19.5s-1.82-13.52-5.27-19.5h0C68.02,9.47,55.05,2,41.1,2Z"/><g class="cls-4"><path class="cls-2" d="m41.1,1C26.3,1,13.3,9.1,6.4,21l34.7,20V1Z"/></g><g class="cls-5"><path class="cls-3" d="m75.8,21C68.9,9,55.9,1,41.1,1v40.1l34.7-20.1Z"/></g><g class="cls-5"><path class="cls-3" d="m6.4,21c-3.4,5.9-5.4,12.7-5.4,20s2,14.1,5.4,20l34.7-20L6.4,21Z"/></g><g class="cls-4"><path class="cls-2" d="m75.8,21l-34.7,20,34.7,20c3.4-5.9,5.4-12.7,5.4-20s-2-14.1-5.4-20Z"/></g><g class="cls-4"><path class="cls-2" d="m6.4,61.1c6.9,12,19.9,20,34.7,20v-40L6.4,61.1Z"/></g><g class="cls-5"><path class="cls-3" d="m41.1,81.2c14.8,0,27.8-8.1,34.7-20l-34.7-20v40Z"/></g><path class="cls-2" d="m41.1,4.3c-13.6,0-25.5,7.4-31.9,18.4l31.9,18.4V4.3Z"/><path class="cls-3" d="m73,22.7c-6.4-11-18.2-18.4-31.9-18.4v36.8l31.9-18.4Z"/><path class="cls-3" d="m9.3,22.7c-3.1,5.4-4.9,11.7-4.9,18.4s1.8,13,4.9,18.4l31.9-18.4L9.3,22.7Z"/><path class="cls-2" d="m73,22.7l-31.9,18.4,31.9,18.4c3.1-5.4,4.9-11.7,4.9-18.4s-1.8-13-4.9-18.4Z"/><path class="cls-2" d="m9.3,59.5c6.4,11,18.2,18.4,31.9,18.4v-36.8l-31.9,18.4Z"/><path class="cls-3" d="m41.1,77.9c13.6,0,25.5-7.4,31.9-18.4l-31.9-18.4v36.8Z"/></g><g id="Layer_3"><path class="cls-3" d="m24.5,16.7l-1.7-3,1.5.4c.5.1,1,.2,1.4.2.2,0,.5,0,.7-.1,0,0,.2-.1.3-.3v-.3c-.1-.2-.2-.2-.3-.2-.2,0-.4.1-.5.1l-.6-1c.5-.3,1-.3,1.3-.2.4.1.7.4,1,.8.3.6.3,1,.2,1.3-.1.2-.2.6-.7.9-.5.3-.9.2-1.4.1l-.9-.3.6,1.1-.9.5Z"/><path class="cls-3" d="m26.6,19.4c-.5-.1-.8-.4-1-.8-.2-.4-.3-.8-.2-1.3s.5-1.1,1.2-1.4c.7-.4,1.3-.5,1.9-.3.5.1.8.4,1,.8.2.4.3.8.2,1.3s-.5,1.1-1.2,1.4c-.7.4-1.4.5-1.9.3Zm1.7-2.8c-.3-.1-.8,0-1.2.2-.3.2-.7.6-.8.9,0,.1,0,.3.1.4.1.1.2.2.3.2.3.1.8-.1,1.2-.2.3-.2.7-.6.8-.9,0-.1,0-.3-.1-.4-.1,0-.2-.1-.3-.2Z"/><path class="cls-3" d="m29.1,19.4c.1-.3.2-.5.5-.6.2-.1.5-.2.8-.1.4.1.6.4.8.6.2.4.2.7.2,1-.1.2-.2.4-.5.6-.3.2-.6.2-.8.1-.4-.1-.6-.4-.8-.6-.2-.3-.3-.6-.2-1Zm1.2,0c-.1,0-.2,0-.4.1-.1.1-.2.2-.2.3s0,.2.1.3.2.2.3.2.3,0,.4-.1c.1-.1.2-.2.2-.3s0-.2-.1-.3c-.1-.1-.2-.2-.3-.2Zm2,2.1l.3.5h-5l-.3-.5h5Zm-3.7,1.7c.1-.3.2-.5.5-.6.2-.1.5-.2.8-.1.4.1.6.4.8.6.2.4.2.7.2,1-.1.2-.2.4-.5.6-.3.2-.6.2-.8.1-.4-.1-.6-.4-.8-.6-.2-.4-.3-.7-.2-1Zm1.2-.1c-.1,0-.3,0-.4.1-.1.1-.2.2-.2.3s0,.2.1.3.2.2.3.2.3,0,.4-.1c.1-.1.2-.2.2-.3s0-.2-.1-.3c-.1-.1-.2-.2-.3-.2Z"/><path class="cls-3" d="m32.4,29.2c-.6-.2-1.1-.6-1.4-1.2s-.4-1.2-.3-1.8c.2-.6.6-1.1,1.1-1.4.5-.3,1.1-.4,1.7-.2.6.2,1.1.6,1.4,1.2.3.6.4,1.2.3,1.8-.1.6-.6,1.1-1.1,1.4-.5.3-1.1.4-1.7.2Zm.8-3.5c-.3-.1-.6,0-.9.1-.3.2-.5.5-.5.7-.1.3,0,.6.1.9.2.3.5.5.7.6.3.1.6.1.9-.1.3-.2.5-.4.5-.7.1-.3,0-.7-.1-.9-.1-.2-.4-.5-.7-.6Z"/><path class="cls-3" d="m36.7,30.9l-.7-1.2-.6.4.6,1.1-.8.5-.6-1.1-1.5.8-.6-1,3.7-2.2,1.2,2.1-.7.6Z"/><path class="cls-3" d="m38.2,33.5l-.7-1.2-.6.4.6,1.1-.8.5-.6-1.1-1.5.8-.6-1,3.7-2.2,1.2,2.1-.7.6Z"/><path class="cls-1" d="m57.7,65.5l1.7,3-1.5-.4c-.5-.1-1-.2-1.4-.2-.2,0-.5,0-.7.1,0,0-.2.1-.3.3v.3c.1.2.2.2.3.2.2,0,.4-.1.5-.1l.6,1c-.5.3-1,.3-1.3.2-.4-.1-.7-.4-1-.8-.3-.6-.3-1-.2-1.3.1-.2.2-.6.7-.9s.9-.2,1.4-.1l.9.3-.7-1.2,1-.4Z"/><path class="cls-1" d="m55.7,62.7c.5.1.8.4,1,.8s.3.8.2,1.3-.5,1.1-1.2,1.4c-.7.4-1.3.5-1.9.3-.5-.1-.8-.4-1-.8s-.3-.8-.2-1.3.5-1.1,1.2-1.4,1.3-.4,1.9-.3Zm-1.8,2.8c.3.1.8,0,1.2-.2.3-.2.7-.6.8-.9,0-.1,0-.3-.1-.4s-.2-.2-.3-.2c-.3-.1-.8.1-1.2.2-.3.2-.7.6-.8.9,0,.1,0,.3.1.4.1.1.2.2.3.2Z"/><path class="cls-1" d="m53.1,62.7c-.1.3-.2.5-.5.6-.2.1-.5.2-.8.1-.4-.1-.6-.4-.8-.6-.2-.4-.2-.7-.2-1,.1-.2.2-.4.5-.6s.6-.2.8-.1c.4.1.6.4.8.6.2.3.3.7.2,1Zm-1.2.1c.1,0,.2,0,.4-.1.1-.1.2-.2.2-.3s0-.2-.1-.3c-.1-.1-.2-.2-.3-.2s-.3,0-.4.1c-.1.1-.2.2-.2.3s0,.2.1.3c.1.1.2.2.3.2Zm-2-2.1l-.3-.5h5l.3.5h-5Zm3.7-1.7c-.1.3-.2.5-.5.6-.2.1-.5.2-.8.1-.4-.1-.6-.4-.8-.6-.2-.4-.2-.7-.2-1,.1-.2.2-.4.5-.6s.6-.2.8-.1c.4.1.6.4.8.6.2.3.3.6.2,1Zm-1.2,0c.1,0,.3,0,.4-.1.1-.1.2-.2.2-.3s0-.2-.1-.3c-.1-.1-.2-.2-.3-.2s-.3,0-.4.1c-.1.1-.2.2-.2.3s0,.2.1.3c.1.1.2.2.3.2Z"/><path class="cls-1" d="m49.8,52.9c.6.2,1.1.6,1.4,1.2s.4,1.2.3,1.8c-.2.6-.6,1.1-1.1,1.4s-1.1.4-1.7.2c-.6-.2-1.1-.6-1.4-1.2-.3-.6-.4-1.2-.3-1.8.1-.6.6-1.1,1.1-1.4.5-.2,1.1-.3,1.7-.2Zm-.8,3.5c.3.1.6,0,.9-.1.3-.2.5-.5.5-.7.1-.3,0-.6-.1-.9-.2-.3-.5-.5-.7-.6-.3-.1-.6-.1-.9.1-.3.2-.5.4-.5.7-.1.3,0,.7.1.9.1.3.4.5.7.6Z"/><path class="cls-1" d="m45.6,51.2l.7,1.2.6-.4-.6-1.1.8-.5.6,1.1,1.5-.8.6,1-3.7,2.2-1.2-2.1.7-.6Z"/><path class="cls-1" d="m44.1,48.6l.7,1.2.6-.4-.6-1.1.8-.5.6,1.1,1.5-.8.6,1-3.7,2.2-1.2-2.1.7-.6Z"/><path class="cls-1" d="m11.6,43.2h-3.5l1.1-1.1c.4-.4.7-.8.9-1.1.1-.2.2-.4.2-.7,0,0,0-.3-.1-.4-.1-.1-.2-.1-.3-.1-.2,0-.3.1-.4.2-.1.1-.1.4-.2.5h-1.2c0-.6.3-1,.5-1.2.3-.3.7-.5,1.2-.5.6,0,1,.3,1.2.4.2.2.4.5.4,1.1,0,.5-.3.9-.6,1.3l-.7.7h1.4v.9h.1Z"/><path class="cls-1" d="m15.1,39.9h-1.5l-.1.5h.3c.6,0,.9.2,1.1.4.2.2.4.5.4,1s-.2.9-.4,1.1c-.4.4-.9.5-1.3.5-.7,0-1.1-.2-1.5-.4l.2-1c.2.2.4.3.5.3.2.1.4.1.6.1s.4-.1.6-.2c.1-.1.2-.3.2-.4,0-.2-.1-.4-.2-.5-.2-.2-.6-.2-.8-.2-.3,0-.6.1-.8.2l.4-2.3h2.2v.9h.1Z"/><path class="cls-1" d="m16.2,40.6c-.2-.2-.3-.4-.3-.7s.1-.6.3-.7c.3-.3.7-.3.9-.3.5,0,.7.2.9.3.1.1.3.4.3.7s-.1.6-.3.7c-.3.3-.6.3-.9.3-.3.1-.6,0-.9-.3Zm.6-1c-.1.1-.1.2-.1.3s.1.3.2.4c.1.1.2.1.3.1s.3-.1.3-.1c.1-.1.1-.2.1-.3s-.1-.3-.2-.4c-.1-.1-.2-.1-.3-.1-.1-.1-.2,0-.3.1Zm2.8-.7h.6l-2.5,4.3h-.6l2.5-4.3Zm-.4,4c-.2-.2-.3-.4-.3-.7s.1-.6.3-.7c.3-.3.7-.3.9-.3.5,0,.7.2.9.3.1.1.3.4.3.7s-.1.6-.3.7c-.3.3-.6.3-.9.3-.3.1-.6,0-.9-.3Zm.6-1c-.1.1-.1.2-.1.3s.1.3.2.4c.1.1.2.1.3.1s.3-.1.3-.1c.1-.1.1-.2.1-.4,0-.1-.1-.3-.2-.4-.1-.1-.2-.1-.3-.1s-.2.1-.3.2Z"/><path class="cls-1" d="m26.4,42.7c-.4.4-1.1.6-1.7.6s-1.3-.2-1.7-.6c-.5-.4-.7-1-.7-1.6s.2-1.2.7-1.6c.4-.4,1.1-.6,1.7-.6s1.3.2,1.7.6c.5.4.7,1,.7,1.6-.1.5-.3,1.1-.7,1.6Zm-2.6-2.5c-.2.2-.3.5-.3.8,0,.4.2.6.3.8.2.2.5.3.9.3s.7-.1.9-.3c.2-.2.4-.5.4-.8s-.1-.6-.4-.8c-.2-.2-.6-.3-.9-.3-.4,0-.7.1-.9.3Z"/><path class="cls-1" d="m30,39.9h-1.4v.7h1.2v1h-1.2v1.6h-1.1v-4.3h2.5v1Z"/><path class="cls-1" d="m33,39.9h-1.4v.7h1.2v1h-1.2v1.6h-1.1v-4.3h2.5v1Z"/><path class="cls-3" d="m70.7,38.9h3.5l-1.1,1.1c-.4.4-.7.8-.9,1.1-.1.2-.2.4-.2.7,0,0,0,.3.1.4s.2.1.3.1c.2,0,.3-.1.4-.2.1-.1.1-.4.2-.5h1.2c0,.6-.3,1-.5,1.2-.3.3-.7.5-1.2.5-.6,0-1-.3-1.2-.4-.2-.2-.4-.5-.4-1.1,0-.5.3-.9.6-1.3l.7-.7h-1.4v-.9h-.1Z"/><path class="cls-3" d="m67.2,42.3h1.5l.1-.5h-.3c-.6,0-.9-.2-1.1-.4-.2-.2-.4-.5-.4-1s.2-.9.4-1.1c.4-.4.9-.5,1.3-.5.7,0,1.1.2,1.5.4l-.2,1c-.2-.2-.4-.3-.5-.3-.2-.1-.4-.1-.6-.1s-.4.1-.6.2c-.1.1-.2.3-.2.4,0,.2.1.4.2.5.2.2.6.2.8.2.3,0,.6-.1.8-.2l-.5,2.3h-2.2v-.9Z"/><path class="cls-3" d="m66,41.5c.2.2.3.4.3.7s-.1.6-.3.7c-.3.3-.7.3-.9.3-.5,0-.7-.2-.9-.3-.1-.1-.3-.4-.3-.7s.1-.6.3-.7c.3-.3.6-.3.9-.3s.7,0,.9.3Zm-.5,1.1c.1-.1.1-.2.1-.3s-.1-.3-.2-.4c-.1-.1-.2-.1-.3-.1s-.3.1-.3.1c-.1.1-.1.2-.1.3s.1.3.2.4c.1.1.2.1.3.1s.2-.1.3-.1Zm-2.9.6h-.6l2.5-4.3h.6l-2.5,4.3Zm.4-4c.2.2.3.4.3.7s-.1.6-.3.7c-.3.3-.7.3-.9.3-.5,0-.7-.2-.9-.3-.1-.1-.3-.4-.3-.7s.1-.6.3-.7c.3-.3.6-.3.9-.3s.6,0,.9.3Zm-.5,1.1c.1-.1.1-.2.1-.3s-.1-.3-.2-.4c-.1-.1-.2-.1-.3-.1s-.3.1-.3.1c-.1.1-.1.2-.1.4,0,.1.1.3.2.4.1.1.2.1.3.1.1-.1.2-.2.3-.2Z"/><path class="cls-3" d="m55.9,39.5c.4-.4,1.1-.6,1.7-.6s1.3.2,1.7.6c.5.4.7,1,.7,1.6s-.2,1.2-.7,1.6c-.4.4-1.1.6-1.7.6s-1.3-.2-1.7-.6c-.5-.4-.7-1-.7-1.6s.2-1.2.7-1.6Zm2.6,2.4c.2-.2.3-.5.3-.8,0-.4-.2-.6-.3-.8-.2-.2-.5-.3-.9-.3s-.7.1-.9.3c-.2.2-.4.5-.4.8s.1.6.4.8c.2.2.6.3.9.3s.6-.1.9-.3Z"/><path class="cls-3" d="m52.3,42.3h1.4v-.7h-1.3v-1h1.2v-1.7h1.1v4.3h-2.5v-.9h.1Z"/><path class="cls-3" d="m49.3,42.3h1.4v-.7h-1.3v-1h1.2v-1.7h1.1v4.3h-2.5v-.9h.1Z"/><path class="cls-3" d="m25.8,69c.1.1.3.1.5.1.1,0,.3-.1.4-.3.1-.2.1-.4.1-.5s-.1-.2-.2-.3c-.2-.1-.3-.1-.4,0-.1.1-.2.2-.3.3,0,.1-.1.1-.1.2l-.7-.4c.1-.2.2-.3.1-.5,0-.1-.1-.2-.2-.3-.1-.1-.2-.1-.3-.1s-.2.1-.3.2-.1.2-.1.3.1.3.3.3l-.5.9c-.4-.2-.6-.6-.6-.9-.1-.4,0-.8.2-1.2.2-.3.4-.6.9-.7.3-.1.6-.1.9.1.2.1.3.2.4.4.1.1.1.3.1.5.2-.2.4-.2.6-.2s.4,0,.6.2c.4.2.6.6.6.8.1.3.1.8-.2,1.3-.2.4-.5.7-1,.8-.3.1-.7.1-1.2-.1l.4-.9Z"/><path class="cls-3" d="m29.6,64.6c.1.5,0,.9-.2,1.3s-.6.7-1,.8c-.5.1-1.2.1-1.8-.3-.7-.4-1.1-.9-1.2-1.4-.1-.5,0-.9.2-1.3s.6-.7,1-.8c.5-.1,1.2-.1,1.9.3.5.3.9.9,1.1,1.4Zm-3.3-.1c.1.3.4.7.8.9.3.2.8.3,1.2.2.1,0,.2-.1.3-.2s.1-.3.1-.4c-.1-.3-.5-.7-.8-.9-.3-.2-.9-.3-1.2-.2-.1,0-.2.1-.3.2s-.1.3-.1.4Z"/><path class="cls-3" d="m28.3,62.4c-.3.1-.5,0-.7-.1s-.4-.4-.5-.6c-.1-.4,0-.7.2-1,.2-.4.5-.6.8-.6.2,0,.5-.1.8.1s.4.4.5.6c.1.4,0,.7-.2,1-.3.3-.5.5-.9.6Zm-.7-1c0,.1.1.2.2.3.1.1.3.1.4,0,.1,0,.2-.1.3-.2s.1-.3.1-.4-.1-.2-.2-.3c-.1-.1-.3-.1-.4,0-.1,0-.2.1-.3.2-.1.2-.1.3-.1.4Zm.9-2.8l.3-.5,2.5,4.3-.3.5-2.5-4.3Zm3.3,2.4c-.3.1-.5,0-.7-.1s-.4-.4-.5-.6c-.1-.4,0-.7.2-1,.2-.4.5-.6.8-.6.2,0,.5-.1.8.1s.4.4.5.6c.1.4,0,.7-.2,1-.3.2-.5.5-.9.6Zm-.7-1c0,.1.1.2.2.3.1.1.3.1.4,0,.1,0,.2-.1.3-.2s.1-.3.1-.4-.1-.2-.2-.3c-.1-.1-.3-.1-.4,0-.1,0-.2.1-.3.2s-.1.3-.1.4Z"/><path class="cls-3" d="m35.1,54.7c.1.6,0,1.2-.3,1.8-.3.6-.8,1-1.4,1.2-.6.2-1.2.1-1.7-.2-.5-.3-.9-.8-1.1-1.4-.1-.6,0-1.2.3-1.8.3-.6.8-1,1.4-1.2.6-.2,1.2-.1,1.7.2.6.3,1,.8,1.1,1.4Zm-3.4,1c.1.3.3.6.6.7.3.2.7.2.9.1.3-.1.5-.3.7-.6.2-.3.2-.6.1-.9-.1-.3-.3-.6-.5-.7-.3-.2-.6-.2-.9-.1-.3.1-.6.3-.7.6-.2.2-.3.6-.2.9Z"/><path class="cls-3" d="m34.5,50.1l-.7,1.2.6.4.6-1.1.8.5-.6,1.1,1.5.8-.6,1-3.7-2.2,1.2-2.1.9.4Z"/><path class="cls-3" d="m36,47.5l-.7,1.2.6.4.6-1.1.8.5-.6,1.1,1.5.8-.6,1-3.7-2.2,1.2-2.1.9.4Z"/><path class="cls-1" d="m56.4,13.1c-.1-.1-.3-.1-.5-.1-.1,0-.3.1-.4.3-.1.2-.1.4-.1.5s.1.2.2.3c.2.1.3.1.4,0,.1-.1.2-.2.3-.3,0-.1.1-.1.1-.2l.7.4c-.1.2-.2.3-.1.5,0,.1.1.2.2.3.1.1.2.1.3.1s.2-.1.3-.2c.1-.1.1-.2.1-.3s-.1-.3-.3-.3l.5-.9c.4.2.6.6.6.9.1.4,0,.8-.2,1.2-.2.3-.4.6-.9.7-.3.1-.6.1-.9-.1-.2-.1-.3-.2-.4-.4-.1-.1-.1-.3-.1-.5-.2.2-.4.2-.6.2s-.4,0-.6-.2c-.4-.2-.6-.6-.6-.8-.1-.3-.1-.8.2-1.3.2-.4.5-.7,1-.8.3-.1.7-.1,1.2.1l-.4.9Z"/><path class="cls-1" d="m52.7,17.5c-.1-.5,0-.9.2-1.3.2-.4.6-.7,1-.8.5-.1,1.2-.1,1.8.3.7.4,1.1.9,1.2,1.4.1.5,0,.9-.2,1.3-.2.4-.6.7-1,.8-.5.1-1.2.1-1.9-.3-.6-.3-1-.8-1.1-1.4Zm3.2.1c-.1-.3-.4-.7-.8-.9-.3-.2-.8-.3-1.2-.2-.1,0-.2.1-.3.2-.1.1-.1.3-.1.4.1.3.5.7.8.9s.9.3,1.2.2c.1,0,.2-.1.3-.2s.2-.2.1-.4Z"/><path class="cls-1" d="m53.9,19.7c.3-.1.5,0,.7.1s.4.4.5.6c.1.4,0,.7-.2,1-.2.4-.5.6-.8.6-.2,0-.5.1-.8-.1-.3-.2-.4-.4-.5-.6-.1-.4,0-.7.2-1,.3-.2.6-.5.9-.6Zm.7,1c0-.1-.1-.2-.2-.3-.1-.1-.3-.1-.4,0-.1,0-.2.1-.3.2-.1.1-.1.3-.1.4s.1.2.2.3c.1.1.3.1.4,0,.1,0,.2-.1.3-.2s.1-.3.1-.4Zm-.8,2.8l-.3.5-2.5-4.3.3-.5,2.5,4.3Zm-3.3-2.3c.3-.1.5,0,.7.1s.4.4.5.6c.1.4,0,.7-.2,1-.2.4-.5.6-.8.6-.2,0-.5.1-.8-.1-.3-.2-.4-.4-.5-.6-.1-.4,0-.7.2-1,.3-.3.5-.6.9-.6Zm.6,1c0-.1-.1-.2-.2-.3-.1-.1-.3-.1-.4,0-.1,0-.2.1-.3.2-.1.1-.1.3-.1.4s.1.2.2.3c.1.1.3.1.4,0,.1,0,.2-.1.3-.2.1-.2.1-.3.1-.4Z"/><path class="cls-1" d="m47.1,27.5c-.1-.6,0-1.2.3-1.8s.8-1,1.4-1.2c.6-.2,1.2-.1,1.7.2s.9.8,1.1,1.4c.1.6,0,1.2-.3,1.8s-.8,1-1.4,1.2c-.6.2-1.2.1-1.7-.2s-.9-.8-1.1-1.4Zm3.4-1.1c-.1-.3-.3-.6-.6-.7-.3-.2-.7-.2-.9-.1-.3.1-.5.3-.7.6s-.2.6-.1.9c.1.3.3.6.5.7.3.2.6.2.9.1.3-.1.6-.3.7-.6.2-.2.3-.5.2-.9Z"/><path class="cls-1" d="m47.7,32l.7-1.2-.6-.4-.6,1.1-.8-.5.6-1.1-1.5-.8.6-1,3.7,2.2-1.2,2.1-.9-.4Z"/><path class="cls-1" d="m46.2,34.6l.7-1.2-.6-.4-.6,1.1-.8-.5.6-1.1-1.5-.8.6-1,3.7,2.2-1.2,2.1-.9-.4Z"/></g></g></svg>